<svg width="23" height="30" fill="none" xmlns="http://www.w3.org/2000/svg"><mask id="a" fill="#fff"><path d="M18.188 30c-.45 0-.813-.28-.813-.625V.625c0-.346.363-.625.813-.625.449 0 .812.28.812.625v28.75c0 .346-.363.625-.813.625z"/></mask><path d="M18.188 28c.177 0 .412.053.644.232.236.181.543.568.543 1.143h-4c0 1.906 1.778 2.625 2.813 2.625v-4zm1.187 1.375V.625h-4v28.75h4zm0-28.75c0 .575-.307.962-.543 1.143a1.059 1.059 0 01-.645.232v-4c-1.034 0-2.812.719-2.812 2.625h4zM18.187 2c-.177 0-.412-.053-.644-.232A1.442 1.442 0 0117 .625h4C21-1.281 19.222-2 18.187-2v4zM17 .625v28.75h4V.625h-4zm0 28.75c0-.575.307-.962.543-1.143.232-.18.467-.232.645-.232v4C19.221 32 21 31.281 21 29.375h-4z" fill="#fff" mask="url(#a)"/><path d="M19.222 2.152c.344.603.673 1.397.976 2.353a7.754 7.754 0 00-.396-.664 4.427 4.427 0 00-.695-.826 2.393 2.393 0 00-.446-.322 6.879 6.879 0 01-.134-.66c-.05-.308-.089-.629-.116-.897.206.147.483.441.81 1.016z" stroke="#fff" stroke-width="2"/><mask id="b" fill="#fff"><path d="M6 11.25c-2.756 0-5-1.963-5-4.375V.625C1 .279 1.32 0 1.714 0c.395 0 .883.28.883.625v6.25C2.597 8.598 4.03 9.5 6 9.5c1.97 0 3.5-1 3.5-2.5V.625c0-.346.39-.625.786-.625.395 0 .714.28.714.625v6.25c0 2.412-2.244 4.375-5 4.375z"/></mask><path d="M6 9.25c-1.911 0-3-1.31-3-2.375h-4c0 3.759 3.398 6.375 7 6.375v-4zM3 6.875V.625h-4v6.25h4zm0-6.25A1.332 1.332 0 011.714 2v-4C.474-2-1-1.068-1 .625h4zM1.714 2a.887.887 0 01-.512-.148C1.126 1.802.597 1.429.597.625h4c0-1.15-.773-1.835-1.191-2.111A3.116 3.116 0 001.714-2v4zM.597.625v6.25h4V.625h-4zm0 6.25c0 1.493.658 2.753 1.785 3.575C3.434 11.217 4.744 11.5 6 11.5v-4c-.713 0-1.105-.168-1.262-.282a.304.304 0 01-.102-.108.516.516 0 01-.04-.235h-4zM6 11.5c1.299 0 2.597-.326 3.63-1.046C10.7 9.711 11.5 8.515 11.5 7h-4c0 .022-.003.024-.006.03a.49.49 0 01-.148.14c-.223.156-.675.33-1.346.33v4zM11.5 7V.625h-4V7h4zm0-6.375c0 .621-.346.997-.536 1.144a1.096 1.096 0 01-.678.231v-4c-.646 0-1.27.22-1.76.597C8.042-1.03 7.5-.342 7.5.625h4zM10.286 2C9.836 2 9 1.626 9 .625h4C13-1.068 11.526-2 10.286-2v4zM9 .625v6.25h4V.625H9zm0 6.25C9 7.94 7.911 9.25 6 9.25v4c3.602 0 7-2.616 7-6.375H9z" fill="#fff" mask="url(#b)"/><mask id="c" fill="#fff"><path d="M6 30c-.553 0-1-.28-1-.625V.625C5 .279 5.447 0 6 0c.553 0 1 .28 1 .625v28.75c0 .346-.447.625-1 .625z"/></mask><path d="M6 24c.665 0 1.556.156 2.473.73.835.521 2.527 2.008 2.527 4.645H-1c0 2.983 1.915 4.782 3.113 5.53A7.345 7.345 0 006 36V24zm5 5.375V.625H-1v28.75h12zm0-28.75c0 2.638-1.692 4.124-2.527 4.646A4.659 4.659 0 016 6V-6a7.345 7.345 0 00-3.887 1.095C.915-4.157-1-2.358-1 .625h12zM6 6a4.659 4.659 0 01-2.473-.73C2.692 4.75 1 3.264 1 .626h12c0-2.983-1.915-4.782-3.113-5.53A7.345 7.345 0 006-6V6zM1 .625v28.75h12V.625H1zm0 28.75c0-2.637 1.692-4.123 2.527-4.646A4.659 4.659 0 016 24v12a7.345 7.345 0 003.887-1.095c1.198-.748 3.113-2.547 3.113-5.53H1z" fill="#fff" mask="url(#c)"/></svg>